<svg xmlns="http://www.w3.org/2000/svg" height="48" viewBox="0 -960 960 960" width="48"><path d="M447-128 190-277q-17.25-9.426-25.625-25.299T156-335v-290q0-16.828 8.375-32.701Q172.75-673.574 190-683l257-149q15.902-9 32.951-9T514-832l256 149q16.25 9.426 25.125 25.299T804-625v290q0 16.828-8.875 32.701Q786.25-286.426 770-277L514-128q-17.328 9-34.377 9-17.049 0-32.623-9Zm16-342v310l3 2q7 4 14 4t14-4l4-2v-309.806L769-627v-4.104q0-5-2.5-10t-7.5-8L748-655 480-499 212-655l-11 5.552q-5 3-7.5 8t-2.5 10V-628l272 158Z"/></svg>