<?xml version="1.0" encoding="utf-8"?><!-- Uploaded to: SVG Repo, www.svgrepo.com, Generator: SVG Repo Mixer Tools -->
<svg width="800px" height="800px" viewBox="0 0 24 24" fill="none" xmlns="http://www.w3.org/2000/svg">
<path d="M10.1322 4.75C9.71799 4.75 9.3822 5.08579 9.3822 5.5C9.3822 5.91421 9.71799 6.25 10.1322 6.25V4.75ZM13.4053 6.25C13.8195 6.25 14.1553 5.91421 14.1553 5.5C14.1553 5.08579 13.8195 4.75 13.4053 4.75V6.25ZM13.6978 16.629C13.2836 16.629 12.9478 16.9648 12.9478 17.379C12.9478 17.7932 13.2836 18.129 13.6978 18.129V16.629ZM16.0222 17.379L16.0222 18.1291L16.032 18.1289L16.0222 17.379ZM17.392 16.56L18.044 16.9308C18.0597 16.9032 18.0736 16.8746 18.0857 16.8452L17.392 16.56ZM17.1678 14.667L16.4516 14.8895C16.4759 14.9679 16.513 15.0417 16.5612 15.1081L17.1678 14.667ZM16.5828 11.695L17.3299 11.6293C17.3281 11.6086 17.3254 11.5881 17.3219 11.5677L16.5828 11.695ZM15.7736 8.37843C15.4955 8.07147 15.0212 8.04808 14.7142 8.3262C14.4073 8.60431 14.3839 9.07861 14.662 9.38557L15.7736 8.37843ZM13.689 18.132C14.1032 18.132 14.439 17.7962 14.439 17.382C14.439 16.9678 14.1032 16.632 13.689 16.632V18.132ZM9.83775 16.632C9.42354 16.632 9.08775 16.9678 9.08775 17.382C9.08775 17.7962 9.42354 18.132 9.83775 18.132V16.632ZM14.4488 17.382C14.4488 16.9678 14.113 16.632 13.6988 16.632C13.2845 16.632 12.9488 16.9678 12.9488 17.382H14.4488ZM10.5877 17.382C10.5877 16.9678 10.252 16.632 9.83775 16.632C9.42354 16.632 9.08775 16.9678 9.08775 17.382L10.5877 17.382ZM9.83775 18.132C10.252 18.132 10.5878 17.7962 10.5878 17.382C10.5878 16.9678 10.252 16.632 9.83775 16.632V18.132ZM7.51335 17.382L7.51168 18.132H7.51335V17.382ZM7.27215 16.5906C6.88091 16.4546 6.45347 16.6615 6.31745 17.0527C6.18142 17.4439 6.38831 17.8714 6.77955 18.0074L7.27215 16.5906ZM19.062 6.02358C19.3512 5.727 19.3452 5.25216 19.0486 4.963C18.752 4.67384 18.2772 4.67985 17.988 4.97642L19.062 6.02358ZM14.6905 8.35842C14.4014 8.655 14.4074 9.12984 14.704 9.419C15.0006 9.70816 15.4754 9.70215 15.7645 9.40558L14.6905 8.35842ZM4.338 18.9764C4.04884 19.273 4.05485 19.7478 4.35142 20.037C4.648 20.3262 5.12284 20.3202 5.412 20.0236L4.338 18.9764ZM7.557 17.8236C7.84616 17.527 7.84015 17.0522 7.54358 16.763C7.247 16.4738 6.77216 16.4798 6.483 16.7764L7.557 17.8236ZM15.7616 9.40858C16.0508 9.112 16.0448 8.63716 15.7482 8.348C15.4516 8.05884 14.9768 8.06485 14.6876 8.36142L15.7616 9.40858ZM6.483 16.7764C6.19384 17.073 6.19985 17.5478 6.49642 17.837C6.793 18.1262 7.26784 18.1202 7.557 17.8236L6.483 16.7764ZM13.2634 8.36888C13.6433 8.53394 14.0851 8.35977 14.2501 7.97987C14.4152 7.59996 14.241 7.15818 13.8611 6.99312L13.2634 8.36888ZM11.7682 7.308L11.7677 6.558C11.7604 6.55801 11.753 6.55812 11.7457 6.55834L11.7682 7.308ZM6.94785 11.7L6.20559 11.5925C6.20358 11.6064 6.20196 11.6203 6.20074 11.6343L6.94785 11.7ZM6.36285 14.672L7.01763 15.0377C7.04304 14.9923 7.06364 14.9442 7.07909 14.8945L6.36285 14.672ZM5.33462 15.1879C5.21525 15.5845 5.44002 16.0028 5.83666 16.1222C6.23329 16.2416 6.65161 16.0168 6.77098 15.6201L5.33462 15.1879ZM10.1322 6.25H13.4053V4.75H10.1322V6.25ZM13.6978 18.129H16.0222V16.629H13.6978V18.129ZM16.032 18.1289C16.8696 18.1179 17.6307 17.6574 18.044 16.9308L16.7401 16.1892C16.5838 16.4641 16.3051 16.6252 16.0123 16.6291L16.032 18.1289ZM18.0857 16.8452C18.4419 15.9788 18.3252 14.9833 17.7744 14.2259L16.5612 15.1081C16.8039 15.4418 16.8579 15.8869 16.6984 16.2748L18.0857 16.8452ZM17.884 14.4445C17.5999 13.5298 17.4141 12.5857 17.3299 11.6293L15.8357 11.7607C15.9292 12.8234 16.1357 13.8725 16.4516 14.8895L17.884 14.4445ZM17.3219 11.5677C17.1167 10.3761 16.5799 9.26839 15.7736 8.37843L14.662 9.38557C15.275 10.0621 15.6862 10.908 15.8437 11.8223L17.3219 11.5677ZM13.689 16.632H9.83775V18.132H13.689V16.632ZM12.9488 17.382C12.9488 17.8306 12.7153 18.2359 12.3514 18.4514L13.1156 19.7421C13.9463 19.2502 14.4488 18.3482 14.4488 17.382H12.9488ZM12.3514 18.4514C11.9897 18.6655 11.5468 18.6655 11.1851 18.4514L10.4209 19.7421C11.2538 20.2353 12.2827 20.2353 13.1156 19.7421L12.3514 18.4514ZM11.1851 18.4514C10.8212 18.2359 10.5877 17.8306 10.5877 17.382L9.08775 17.382C9.08775 18.3482 9.59024 19.2502 10.4209 19.7421L11.1851 18.4514ZM9.83775 16.632H7.51335V18.132H9.83775V16.632ZM7.51502 16.632C7.43272 16.6318 7.35073 16.6179 7.27215 16.5906L6.77955 18.0074C7.01504 18.0893 7.26235 18.1314 7.51168 18.132L7.51502 16.632ZM17.988 4.97642L14.6905 8.35842L15.7645 9.40558L19.062 6.02358L17.988 4.97642ZM5.412 20.0236L7.557 17.8236L6.483 16.7764L4.338 18.9764L5.412 20.0236ZM14.6876 8.36142L6.483 16.7764L7.557 17.8236L15.7616 9.40858L14.6876 8.36142ZM13.8611 6.99312C13.1995 6.70566 12.4875 6.5575 11.7677 6.558L11.7688 8.058C12.2817 8.05764 12.7899 8.16318 13.2634 8.36888L13.8611 6.99312ZM11.7457 6.55834C8.9363 6.6429 6.61328 8.77736 6.20559 11.5925L7.69011 11.8075C7.99732 9.68609 9.73636 8.1195 11.7908 8.05766L11.7457 6.55834ZM6.20074 11.6343C6.11658 12.5907 5.93074 13.5348 5.64661 14.4495L7.07909 14.8945C7.39498 13.8775 7.60147 12.8284 7.69496 11.7657L6.20074 11.6343ZM5.70807 14.3063C5.55215 14.5854 5.42695 14.8811 5.33462 15.1879L6.77098 15.6201C6.83212 15.417 6.91489 15.2217 7.01763 15.0377L5.70807 14.3063Z" fill="#000000"/>
</svg>