<?xml version="1.0" encoding="utf-8"?><!-- Uploaded to: SVG Repo, www.svgrepo.com, Generator: SVG Repo Mixer Tools -->
<svg width="800px" height="800px" viewBox="0 0 24 24" fill="none" xmlns="http://www.w3.org/2000/svg">
<path d="M7.81269 11.805L8.48873 12.1298C8.53741 12.0284 8.56269 11.9174 8.56269 11.805H7.81269ZM6.82501 13.861L6.14897 13.5362C6.08961 13.6598 6.06525 13.7973 6.07855 13.9338L6.82501 13.861ZM8.24851 15.73L8.56851 15.0517C8.54848 15.0422 8.52805 15.0337 8.50727 15.0261L8.24851 15.73ZM11.7644 16.53L11.7601 17.28L11.7686 17.28L11.7644 16.53ZM15.2802 15.73L14.9707 15.0468L14.9602 15.0517L15.2802 15.73ZM16.3264 14.916L16.9113 15.3855C16.9407 15.3489 16.9666 15.3096 16.9886 15.2681L16.3264 14.916ZM16.2094 12.833L15.5231 13.1354C15.542 13.1783 15.5649 13.2194 15.5914 13.258L16.2094 12.833ZM15.6449 10.664L16.3915 10.593C16.3907 10.5849 16.3898 10.5768 16.3888 10.5687L15.6449 10.664ZM11.7644 19L11.754 19.7499C11.7609 19.75 11.7678 19.75 11.7747 19.7499L11.7644 19ZM11.7634 5.897C10.1522 5.897 8.93413 6.59555 8.14766 7.73144C7.38524 8.8326 7.06269 10.2897 7.06269 11.805H8.56269C8.56269 10.4733 8.85049 9.3514 9.38091 8.58531C9.88729 7.85395 10.6446 7.397 11.7634 7.397V5.897ZM7.13665 11.4802L6.14897 13.5362L7.50105 14.1858L8.48873 12.1298L7.13665 11.4802ZM6.07855 13.9338C6.18878 15.0647 6.92546 16.0427 7.98975 16.4339L8.50727 15.0261C7.99879 14.8391 7.62744 14.3624 7.57147 13.7882L6.07855 13.9338ZM7.92852 16.4083C9.12988 16.9751 10.4363 17.2725 11.7601 17.28L11.7686 15.78C10.6642 15.7738 9.57324 15.5257 8.56851 15.0517L7.92852 16.4083ZM11.7686 17.28C13.0925 17.2725 14.3988 16.9751 15.6002 16.4083L14.9602 15.0517C13.9555 15.5257 12.8645 15.7738 11.7601 15.78L11.7686 17.28ZM15.5897 16.4132C16.1041 16.1801 16.5564 15.8276 16.9113 15.3855L15.7415 14.4465C15.5324 14.7071 15.2681 14.9121 14.9707 15.0468L15.5897 16.4132ZM16.9886 15.2681C17.4707 14.3614 17.4092 13.254 16.8273 12.408L15.5914 13.258C15.8552 13.6415 15.8844 14.1496 15.6642 14.5639L16.9886 15.2681ZM16.8957 12.5306C16.6257 11.9178 16.4553 11.2632 16.3915 10.593L14.8982 10.735C14.9771 11.5644 15.1881 12.3752 15.5231 13.1354L16.8957 12.5306ZM16.3888 10.5687C16.2291 9.32169 15.8062 8.15798 15.0356 7.29412C14.247 6.41001 13.1429 5.897 11.7634 5.897V7.397C12.7365 7.397 13.426 7.74299 13.9163 8.29263C14.4246 8.86252 14.7662 9.70731 14.9009 10.7593L16.3888 10.5687ZM12.5134 6.647V5H11.0134V6.647H12.5134ZM8.85395 18.7845C9.70153 19.3981 10.7125 19.7355 11.754 19.7499L11.7747 18.2501C11.0449 18.24 10.3332 18.0036 9.73348 17.5695L8.85395 18.7845ZM11.7747 19.7499C12.8162 19.7355 13.8272 19.3981 14.6748 18.7845L13.7952 17.5695C13.1955 18.0036 12.4839 18.24 11.754 18.2501L11.7747 19.7499Z" fill="#000000"/>
</svg>